HIERARCHY
ROOT Hips
{
	OFFSET 0.000000 0.000000 0.000000
	CHANNELS 6 Xposition Yposition Zposition Zrotation Yrotation Xrotation 
	JOINT LHipJoint
	{
		OFFSET 0.000000 0.000000 0.000000
		CHANNELS 3 Zrotation Yrotation Xrotation
		JOINT LeftUpLeg
		{
			OFFSET 1.363060 -1.794630 0.839290
			CHANNELS 3 Zrotation Yrotation Xrotation
			JOINT LeftLeg
			{
				OFFSET 2.448110 -6.726130 0.000000
				CHANNELS 3 Zrotation Yrotation Xrotation
				JOINT LeftFoot
				{
					OFFSET 2.562200 -7.039590 0.000000
					CHANNELS 3 Zrotation Yrotation Xrotation
					JOINT LeftToeBase
					{
						OFFSET 0.157640 -0.433110 2.322550
						CHANNELS 3 Zrotation Yrotation Xrotation
						End Site
						{
							OFFSET 0.000000 0.000000 0.000000
						}
					}
				}
			}
		}
	}
	JOINT RHipJoint
	{
		OFFSET 0.000000 0.000000 0.000000
		CHANNELS 3 Zrotation Yrotation Xrotation
		JOINT RightUpLeg
		{
			OFFSET -1.305520 -1.794630 0.839290
			CHANNELS 3 Zrotation Yrotation Xrotation
			JOINT RightLeg
			{
				OFFSET -2.542530 -6.985550 0.000000
				CHANNELS 3 Zrotation Yrotation Xrotation
				JOINT RightFoot
				{
					OFFSET -2.568260 -7.056230 0.000000
					CHANNELS 3 Zrotation Yrotation Xrotation
					JOINT RightToeBase
					{
						OFFSET -0.164730 -0.452590 2.363150
						CHANNELS 3 Zrotation Yrotation Xrotation
						End Site
						{
							OFFSET 0.000000 0.000000 0.000000
						}
					}
				}
			}
		}
	}
	JOINT LowerBack
	{
		OFFSET 0.000000 0.000000 0.000000
		CHANNELS 3 Zrotation Yrotation Xrotation
		JOINT Spine
		{
			OFFSET 0.028270 2.035590 -0.193380
			CHANNELS 3 Zrotation Yrotation Xrotation
			JOINT Spine1
			{
				OFFSET 0.056720 2.048850 -0.042750
				CHANNELS 3 Zrotation Yrotation Xrotation
				JOINT Neck
				{
					OFFSET 0.000000 0.000000 0.000000
					CHANNELS 3 Zrotation Yrotation Xrotation
					JOINT Neck1
					{
						OFFSET -0.054170 1.746240 0.172020
						CHANNELS 3 Zrotation Yrotation Xrotation
						JOINT Head
						{
							OFFSET 0.104070 1.761360 -0.123970
							CHANNELS 3 Zrotation Yrotation Xrotation
							End Site
							{
								OFFSET 0.000000 0.000000 0.000000
							}
						}
					}
				}
				JOINT LeftShoulder
				{
					OFFSET 0.000000 0.000000 0.000000
					CHANNELS 3 Zrotation Yrotation Xrotation
					JOINT LeftArm
					{
						OFFSET 3.362410 1.200890 -0.311210
						CHANNELS 3 Zrotation Yrotation Xrotation
						JOINT LeftForeArm
						{
							OFFSET 4.983000 -0.000000 -0.000000
							CHANNELS 3 Zrotation Yrotation Xrotation
							JOINT LeftHand
							{
								OFFSET 3.483560 -0.000000 -0.000000
								CHANNELS 3 Zrotation Yrotation Xrotation
								JOINT LeftFingerBase
								{
									OFFSET 0.000000 0.000000 0.000000
									CHANNELS 3 Zrotation Yrotation Xrotation
									JOINT LeftHandIndex1
									{
										OFFSET 0.715260 -0.000000 -0.000000
										CHANNELS 3 Zrotation Yrotation Xrotation
										End Site
										{
											OFFSET 0.000000 0.000000 0.000000
										}
									}
								}
								JOINT LThumb
								{
									OFFSET 0.000000 0.000000 0.000000
									CHANNELS 3 Zrotation Yrotation Xrotation
									End Site
									{
										OFFSET 0.000000 0.000000 0.000000
									}
								}
							}
						}
					}
				}
				JOINT RightShoulder
				{
					OFFSET 0.000000 0.000000 0.000000
					CHANNELS 3 Zrotation Yrotation Xrotation
					JOINT RightArm
					{
						OFFSET -3.136600 1.374050 -0.404650
						CHANNELS 3 Zrotation Yrotation Xrotation
						JOINT RightForeArm
						{
							OFFSET -5.241900 -0.000000 -0.000000
							CHANNELS 3 Zrotation Yrotation Xrotation
							JOINT RightHand
							{
								OFFSET -3.444170 -0.000000 -0.000000
								CHANNELS 3 Zrotation Yrotation Xrotation
								JOINT RightFingerBase
								{
									OFFSET 0.000000 0.000000 0.000000
									CHANNELS 3 Zrotation Yrotation Xrotation
									JOINT RightHandIndex1
									{
										OFFSET -0.622530 -0.000000 -0.000000
										CHANNELS 3 Zrotation Yrotation Xrotation
										End Site
										{
											OFFSET 0.000000 0.000000 0.000000
										}
									}
								}
								JOINT RThumb
								{
									OFFSET 0.000000 0.000000 0.000000
									CHANNELS 3 Zrotation Yrotation Xrotation
									End Site
									{
										OFFSET 0.000000 0.000000 0.000000
									}
								}
							}
						}
					}
				}
			}
		}
	}
}
MOTION
Frames: 12
Frame Time: 0.008333
-0.662137 18.215797 -11.553490 1.126807 -2.636054 4.603457 -3.304330 5.854727 6.034550 -14.107206 -11.757514 -6.306297 -0.858027 2.387442 10.915698 -3.406800 13.865572 -4.240014 0.201900 -2.893300 -7.982000 -2.797393 -6.776563 4.196735 19.760030 26.426635 -1.323515 -0.990872 -3.698202 16.453244 4.055890 -15.343239 -6.617471 -0.033400 1.179500 -3.242700 2.927791 0.972373 -3.462379 -9.198892 0.490822 14.491372 4.035112 0.771304 -9.969761 -9.022959 -3.491353 -14.002770 10.052599 -5.568764 19.081658 3.849800 -2.288000 6.118900 -6.533206 -0.990659 -0.830694 -82.968373 1.462972 8.866285 11.667348 -17.443567 -1.721378 -0.531087 -1.144067 6.497683 19.053515 23.527396 8.407000 -7.125000 0.000000 0.000000 -10.868600 55.684100 -2.874100 10.489211 0.530301 -1.910118 77.231493 -1.266596 20.074022 -14.012214 16.902576 -2.531193 0.962021 0.220016 20.018405 -20.174629 0.719357 -0.057100 7.125000 0.000000 0.000000 4.374100 -29.806700 1.625400
-0.665866 18.217058 -11.569656 1.094579 -2.301784 4.837232 -3.291792 5.815654 5.976839 -14.017358 -11.736336 -6.894693 -0.811319 2.539129 11.337384 -3.303158 13.462189 -3.972801 0.213384 -2.973923 -8.206190 -2.783495 -6.755879 4.198322 19.734227 26.401490 -1.649519 -1.002646 -3.715918 16.519062 4.108852 -15.534745 -6.735419 -0.032638 1.165338 -3.203861 2.875465 0.867444 -3.241652 -9.104854 0.356107 14.343511 4.066696 0.720064 -10.099361 -8.920561 -3.399765 -14.015639 10.012474 -5.448916 19.043532 3.841803 -2.227811 6.090275 -6.547916 -0.965361 -0.822754 -82.947586 1.496590 9.119476 11.752207 -17.576301 -1.751061 -0.532369 -1.133545 6.582484 19.207688 23.203579 8.372889 -7.125000 0.000000 0.000000 -10.556753 55.379504 -2.711806 10.475082 0.512445 -1.906675 77.214000 -1.408811 20.218069 -14.127644 17.104519 -2.586364 0.955347 0.258617 19.892926 -20.089307 0.493611 0.041951 7.125000 0.000000 0.000000 4.467730 -30.082036 1.630986
-0.669591 18.217863 -11.582749 0.755701 -2.292088 4.982906 -3.246500 5.804236 5.955519 -13.647352 -11.681457 -7.416571 -0.765882 2.701958 11.752151 -3.257270 13.278536 -3.897527 0.224706 -3.051071 -8.421094 -2.760193 -6.737381 4.205640 20.070805 26.612909 -1.770573 -1.007495 -3.696395 16.516867 4.162878 -15.704533 -6.738180 -0.030328 1.123387 -3.088267 3.055608 0.900772 -3.061231 -8.761454 0.418851 14.437009 3.894642 0.749935 -10.253608 -8.806703 -3.363361 -14.138673 9.911992 -5.394970 19.088895 3.806373 -2.200049 6.098298 -6.586540 -0.945680 -0.831154 -82.872568 1.429706 9.505732 11.870346 -17.770038 -1.795381 -0.511068 -1.143367 6.068408 18.974355 23.189286 8.258398 -7.125000 0.000000 0.000000 -10.805695 55.321049 -2.761633 10.426863 0.498820 -1.913768 77.248020 -1.461742 20.226680 -14.228814 17.276547 -2.636450 0.947874 0.262479 19.807117 -20.098770 0.638150 -0.013064 7.125000 0.000000 0.000000 4.459302 -29.928483 1.644203
-0.671716 18.219088 -11.588200 0.552676 -2.256958 5.055556 -3.199422 5.799027 5.957912 -13.453791 -11.629599 -7.791190 -0.723533 2.833870 12.122197 -3.210485 13.094292 -3.893002 0.221383 -3.028878 -8.359251 -2.728001 -6.735867 4.241521 20.251515 26.789375 -1.833009 -1.011010 -3.683486 16.515791 4.204368 -15.840635 -6.790148 -0.027897 1.078468 -2.964722 3.065715 0.927039 -3.105648 -8.358744 0.459245 14.817708 3.788619 0.766420 -10.259277 -8.750531 -3.327213 -14.208744 9.733156 -5.293263 18.904710 3.767203 -2.163226 6.060186 -6.616893 -0.946192 -0.865210 -82.903137 1.271731 9.817295 12.012487 -17.992942 -1.848388 -0.492747 -1.150049 5.597825 18.765084 23.127993 8.141168 -7.125000 0.000000 0.000000 -11.004205 55.218229 -2.785413 10.349436 0.524834 -1.929513 77.179845 -1.329751 20.352177 -14.290817 17.381717 -2.671876 0.932036 0.251581 19.607572 -20.026551 0.940446 -0.134778 7.125000 0.000000 0.000000 4.508217 -29.586275 1.699393
-0.666162 18.218494 -11.592259 0.708598 -2.395420 5.206762 -3.223765 5.763155 5.927981 -13.656763 -11.496747 -8.160389 -0.682829 2.943919 12.462504 -3.172456 12.964235 -3.973314 0.226141 -3.061005 -8.448676 -2.743877 -6.728748 4.248051 19.948558 26.732495 -2.172082 -1.019213 -3.706044 16.573023 4.139509 -15.612660 -6.660555 -0.028869 1.096922 -3.015422 3.046729 1.015344 -3.083639 -8.563508 0.584922 14.876162 3.843402 0.825927 -10.252297 -8.505170 -3.314840 -14.126780 9.416555 -5.232782 18.734448 3.675777 -2.154555 6.005078 -6.594921 -0.934852 -0.874127 -82.880194 1.245009 10.126258 12.057443 -18.060850 -1.866137 -0.497125 -1.137949 5.681172 18.919586 22.841310 8.119638 -7.125000 0.000000 0.000000 -10.708385 54.949160 -2.638929 10.322850 0.538790 -1.933085 77.143325 -1.369492 20.505195 -14.366848 17.515640 -2.712788 0.919493 0.268024 19.363090 -19.908704 0.960190 -0.138295 7.125000 0.000000 0.000000 4.611695 -29.573468 1.739985
-0.661008 18.219049 -11.609379 0.738688 -2.804898 5.595988 -3.253178 5.706655 5.868458 -13.725298 -11.209193 -8.822882 -0.651863 3.038155 12.720414 -3.166210 12.946930 -3.979582 0.234779 -3.118582 -8.608947 -2.767756 -6.708704 4.236839 19.652489 26.794129 -2.912331 -1.040061 -3.750134 16.701958 4.029360 -15.207320 -6.280607 -0.034103 1.191313 -3.275456 3.143654 1.226825 -3.043408 -8.775749 0.867945 14.753346 3.820115 0.966128 -10.271251 -8.360429 -3.272174 -14.198890 9.396271 -5.184831 18.688948 3.657702 -2.125397 5.996514 -6.574840 -0.926983 -0.865643 -82.773620 1.141504 10.642295 12.121537 -18.162214 -1.890005 -0.493805 -1.150319 5.565843 18.933894 23.182213 8.235316 -7.125000 0.000000 0.000000 -10.853988 55.307144 -2.771014 10.315462 0.538610 -1.928739 77.178183 -1.425888 20.495051 -14.503833 17.734969 -2.772544 0.928479 0.300638 19.223057 -20.049679 0.722997 -0.036291 7.125000 0.000000 0.000000 4.514470 -29.862264 1.672068
-0.658005 18.220705 -11.620746 0.683040 -2.940353 5.776611 -3.246296 5.681929 5.856212 -13.702206 -11.021800 -9.303598 -0.611498 3.153326 13.048996 -3.126241 12.797105 -3.960776 0.249167 -3.211630 -8.868442 -2.769684 -6.701165 4.261550 19.582219 26.892278 -3.309229 -1.063048 -3.788629 16.837316 4.000176 -15.094767 -6.150324 -0.037485 1.249631 -3.435993 3.236010 1.315303 -3.070884 -8.742834 1.000362 15.035445 3.735645 1.018668 -10.254284 -8.310477 -3.225227 -14.216436 9.437676 -5.106030 18.349231 3.667169 -2.085613 5.925778 -6.552925 -0.930307 -0.891422 -82.745515 0.964618 11.063348 12.244852 -18.360478 -1.937340 -0.487716 -1.159346 5.337413 18.940629 23.375134 8.299996 -7.125000 0.000000 0.000000 -10.939466 55.509775 -2.846750 10.265917 0.555412 -1.949357 77.172670 -1.369308 20.637464 -14.641635 17.953172 -2.836105 0.933180 0.325910 19.154065 -20.172227 0.539271 0.043382 7.125000 0.000000 0.000000 4.430485 -30.086087 1.616871
-0.656354 18.220138 -11.627343 0.645219 -2.963534 5.835906 -3.226205 5.668651 5.855887 -13.698923 -10.958546 -9.674304 -0.557139 3.301506 13.486534 -3.075293 12.612206 -4.025472 0.258121 -3.268858 -9.028221 -2.761291 -6.700297 4.296925 19.562548 27.021806 -3.455245 -1.077420 -3.807262 16.917596 4.007222 -15.118276 -6.183941 -0.037277 1.246441 -3.427216 3.252889 1.353541 -3.059514 -8.615370 1.070539 15.441118 3.674694 1.043334 -10.259387 -8.272086 -3.191742 -14.236443 9.435214 -5.027133 17.918716 3.669488 -2.051562 5.836677 -6.539561 -0.933240 -0.926385 -82.762899 0.752883 11.349077 12.323244 -18.486791 -1.970433 -0.482341 -1.143914 5.132142 18.964558 22.841198 8.138490 -7.125000 0.000000 0.000000 -10.667218 54.958970 -2.631413 10.206815 0.576307 -1.974493 77.144976 -1.253964 20.712897 -14.707270 18.064038 -2.871883 0.929495 0.314780 19.200748 -20.245618 0.715816 -0.028421 7.125000 0.000000 0.000000 4.364145 -29.886640 1.613346
-0.655961 18.217488 -11.639108 0.491418 -2.932708 5.949458 -3.182942 5.653320 5.830817 -13.557620 -10.968596 -10.100322 -0.503915 3.457481 13.923934 -3.011482 12.383370 -4.099345 0.255112 -3.249773 -8.975006 -2.737680 -6.682810 4.314993 19.652756 27.086335 -3.667008 -1.091758 -3.824454 16.998010 4.009338 -15.122968 -6.176811 -0.034193 1.194156 -3.283126 3.260249 1.365145 -2.827587 -8.266205 1.102656 15.585252 3.566135 1.067565 -10.423829 -8.396708 -3.176726 -14.336756 9.514443 -4.992388 17.819033 3.701514 -2.031248 5.819984 -6.563693 -0.916335 -0.939885 -82.779349 0.666935 11.736988 12.405970 -18.626143 -2.005503 -0.474178 -1.136912 4.843640 18.976965 22.452800 8.018273 -7.125000 0.000000 0.000000 -10.483062 54.559302 -2.482513 10.152431 0.557873 -1.988334 77.041562 -1.319006 20.843642 -14.796168 18.230052 -2.922072 0.922358 0.319076 19.153228 -20.255509 0.828627 -0.071054 7.125000 0.000000 0.000000 4.357279 -29.768064 1.623117
-0.655969 18.213906 -11.654648 0.171856 -2.972729 6.130990 -3.130873 5.643035 5.802865 -13.236209 -10.990161 -10.581579 -0.456669 3.606366 14.306476 -2.984269 12.283180 -4.120990 0.250850 -3.222587 -8.899099 -2.715080 -6.659928 4.326533 19.912987 27.305827 -3.913006 -1.111642 -3.843101 17.103215 4.028320 -15.179894 -6.152400 -0.034876 1.205826 -3.315252 3.439592 1.393279 -2.590955 -7.872018 1.159820 15.669254 3.354958 1.096009 -10.597434 -8.506102 -3.140494 -14.411963 9.606461 -4.943230 17.820184 3.732809 -2.000487 5.817617 -6.593117 -0.897191 -0.951655 -82.742244 0.707714 12.327934 12.577188 -18.909347 -2.073293 -0.469412 -1.146890 4.466481 19.174444 22.554878 8.141698 -7.125000 0.000000 0.000000 -10.325451 54.709384 -2.482356 10.098796 0.533278 -1.999286 76.966931 -1.413465 21.079647 -14.916375 18.439145 -2.989232 0.914901 0.320761 18.908619 -20.294003 1.079414 -0.168891 7.125000 0.000000 0.000000 4.319739 -29.496906 1.637024
-0.653688 18.212869 -11.667047 0.107324 -3.013633 6.290730 -3.116056 5.622932 5.778889 -13.186205 -11.006989 -11.018057 -0.405576 3.742721 14.694344 -2.959026 12.193981 -4.153912 0.245884 -3.190733 -8.810286 -2.712010 -6.652570 4.347794 19.871696 27.524354 -4.163663 -1.124209 -3.858550 17.175975 4.017301 -15.146001 -6.202068 -0.029922 1.115592 -3.066961 3.502627 1.449055 -2.513826 -7.792550 1.249685 15.884651 3.288032 1.134273 -10.630147 -8.408286 -3.139156 -14.327654 9.532124 -4.916863 17.487799 3.706161 -1.995968 5.734971 -6.583969 -0.890594 -0.976810 -82.710630 0.646586 12.861876 12.726720 -19.146923 -2.132413 -0.470343 -1.149008 4.205512 19.435529 22.539620 8.255790 -7.125000 0.000000 0.000000 -10.044859 54.746793 -2.423228 10.048707 0.545345 -2.014928 76.910769 -1.395284 21.300935 -14.999593 18.579706 -3.034659 0.913207 0.328029 18.569727 -20.340490 1.193013 -0.212079 7.125000 0.000000 0.000000 4.278871 -29.378399 1.633558
-0.649260 18.211858 -11.676246 0.125487 -3.056527 6.413875 -3.111100 5.605417 5.763024 -13.236891 -11.034049 -11.388780 -0.354532 3.868484 15.068529 -2.947356 12.158042 -4.225097 0.257303 -3.263779 -9.013869 -2.712666 -6.651367 4.374910 19.724465 27.696547 -4.421612 -1.136710 -3.876554 17.242294 4.006014 -15.101903 -6.164543 -0.028298 1.086466 -2.986805 3.517869 1.479749 -2.463358 -7.800144 1.308952 16.180215 3.272925 1.155224 -10.639699 -8.207009 -3.106986 -14.320668 9.357106 -4.834457 17.104924 3.652064 -1.967439 5.647277 -6.566997 -0.889026 -1.001756 -82.670457 0.430845 13.153883 12.755480 -19.195044 -2.145757 -0.473017 -1.144670 4.129608 19.559308 22.433035 8.276807 -7.125000 0.000000 0.000000 -9.865913 54.658622 -2.358148 9.998153 0.569028 -2.030500 76.861773 -1.308421 21.581838 -15.050099 18.667443 -3.063667 0.921994 0.326665 18.369860 -20.509971 1.278494 -0.247362 7.125000 0.000000 0.000000 4.134344 -29.287008 1.587179
